PathFileType	4	(X/Y/Z)	D:\TRACE\v60_Jaco2_6-2-23\JustBodyDRS_Motion2_4-platform.trc
DataRate	CameraRate	NumFrames	NumMarkers	Units	OrigDataRate	OrigDataStartFrame	OrigNumFrames
100.00	100.00	      29	5	mm	100.00	2596	      6921
Frame#	Time	Left_Front			Right_Front			Left_Aft			Right_Aft			Post			
		X1	Y1	Z1	X2	Y2	Z2	X3	Y3	Z3	X4	Y4	Z4	X5	Y5	Z5	

2596	25.950	-843.84406	-51.52143	-650.37805	726.47565	-49.53106	-655.38257	-752.60010	49.02691	480.87106	690.15143	48.65454	489.85281	-57.39764	1214.26282	-1091.56543	
2597	25.960	-842.95917	-51.62083	-650.42273	727.19843	-49.78754	-655.40283	-750.41565	47.34234	480.81891	691.19037	49.19121	489.82907	-57.28535	1213.95581	-1091.79443	
2598	25.970	-842.36554	-51.82319	-650.31274	727.78571	-50.37280	-655.39984	-750.50586	48.23811	480.40326	691.88104	49.46759	489.66608	-56.92369	1213.62463	-1092.22900	
2599	25.980	-841.76270	-52.12806	-650.39069	728.37390	-50.56172	-655.31635	-749.81244	48.44184	480.35977	692.34369	49.54732	489.50592	-56.73011	1213.12878	-1092.32129	
2600	25.990	-841.28973	-52.91072	-650.48688	728.80688	-50.88819	-655.46698	-749.34399	48.84518	480.24112	692.83527	49.79176	489.44476	-55.59468	1212.51526	-1092.99719	
2601	26.000	-840.72040	-53.17670	-650.73865	729.48871	-51.04369	-655.47742	-748.66095	48.95135	480.31845	693.52948	49.79632	489.42126	-54.77100	1211.90552	-1092.88257	
2602	26.010	-840.13708	-53.07764	-650.61102	730.23456	-51.33684	-655.75104	-748.10004	48.84662	480.28989	694.39545	50.03680	489.27432	-54.13250	1211.65601	-1092.96826	
2603	26.020	-839.13525	-53.03199	-650.55670	730.90192	-51.39333	-655.70984	-747.32874	49.08421	480.39716	694.85291	49.93187	489.20172	-53.52823	1211.55542	-1092.99414	
2604	26.030	-838.29327	-53.27413	-650.38403	731.90436	-51.28599	-655.61517	-746.49750	49.15288	480.36005	695.58466	50.02387	489.10635	-53.07547	1211.55078	-1092.97815	
2605	26.040	-837.83685	-53.41528	-650.43793	732.53198	-51.35120	-655.52362	-745.79077	49.22997	480.09305	696.38593	50.16905	489.22137	-52.43770	1211.55640	-1093.26575	
2606	26.050	-837.26202	-53.47438	-650.58337	733.01312	-51.28597	-655.72980	-745.19513	49.28855	479.99564	697.05212	50.20531	489.24695	-51.41114	1211.41284	-1093.20715	
2607	26.060	-836.42023	-53.33766	-650.73645	733.91687	-51.33692	-655.76782	-744.41821	49.19930	480.09885	697.74493	50.16472	489.14719	-50.69733	1211.44727	-1092.65356	
2608	26.070	-835.68658	-53.31302	-650.52216	734.44458	-51.37885	-655.77197	-743.74170	49.07367	480.04617	698.30066	50.05966	489.15765	-49.97088	1211.64819	-1092.53699	
2609	26.080	-834.64008	-53.06515	-650.43243	735.21667	-51.29984	-655.82178	-742.90826	49.02328	480.18063	699.46863	50.07226	489.25165	-49.39125	1211.84705	-1092.47144	
2610	26.090	-834.11206	-53.01562	-650.50067	736.23523	-51.10178	-655.62238	-742.16638	48.94779	480.28604	700.27582	50.18078	489.37024	-48.53917	1212.04456	-1092.16663	
2611	26.100	-833.28137	-52.78498	-650.52777	737.09821	-50.72127	-655.43298	-741.30371	49.03119	480.31094	700.17651	49.24299	488.82004	-47.70685	1212.27856	-1091.72583	
2612	26.110	-832.39606	-52.61220	-650.72705	737.91296	-50.61957	-655.56317	-740.44177	48.71839	480.42368	701.95483	49.76302	489.35129	-46.81244	1212.71313	-1091.20081	
2613	26.120	-831.52051	-52.21199	-650.63129	738.69409	-50.40398	-655.59192	-739.76978	48.39721	480.40454	702.47571	49.47330	489.36563	-46.19892	1213.13855	-1090.89563	
2614	26.130	-830.67078	-51.97425	-650.48761	739.47327	-50.26270	-655.66162	-738.83191	48.21901	480.43149	703.46198	49.20703	489.50885	-45.09142	1213.60388	-1090.36023	
2615	26.140	-829.73444	-51.52343	-650.26276	740.29388	-49.68523	-655.41876	-737.89227	48.14860	480.57010	704.37518	48.97734	489.67404	-44.09532	1214.07959	-1089.74854	
2616	26.150	-828.99597	-51.10088	-650.29004	741.26147	-49.08921	-655.35895	-737.08142	47.96468	480.59528	704.95636	48.73790	489.69937	-43.54363	1214.80664	-1089.03101	
2617	26.160	-828.09894	-50.90212	-650.29181	742.05487	-48.78836	-655.47437	-735.91876	47.56147	480.71469	706.31903	48.44407	489.80368	-42.66373	1215.44800	-1088.78198	
2618	26.170	-827.05194	-50.44529	-650.22290	743.12207	-48.49643	-655.44806	-735.19055	47.16863	480.93167	707.12469	48.19971	489.95126	-41.52120	1216.26294	-1087.85852	
2619	26.180	-826.35822	-50.07943	-650.11682	743.75562	-47.98642	-655.35376	-734.37476	46.74683	480.97906	707.83887	47.74293	490.08957	-40.54609	1216.94092	-1087.12585	
2620	26.190	-825.14594	-49.33000	-649.96075	744.93378	-47.49560	-655.10913	-733.30487	46.47408	481.13727	708.98444	47.46312	490.35449	-39.53354	1217.81812	-1086.30920	
2621	26.200	-824.25189	-48.59961	-649.97058	745.95245	-47.08528	-655.05774	-732.38025	46.37457	481.39374	710.32306	47.42009	491.38773	-38.99690	1218.87720	-1085.08484	
2622	26.210	-823.46252	-48.07137	-649.94391	746.97913	-46.23979	-654.91779	-731.48395	45.95114	481.55533	710.85394	46.71357	490.97461	-37.98283	1219.76245	-1084.03918	
2623	26.220	-822.35858	-47.55396	-649.76721	747.85852	-45.60585	-654.80536	-730.33289	45.36570	481.62210	711.49365	46.00552	491.04172	-36.50183	1220.80957	-1082.99280	
2624	26.230	-821.50787	-47.08180	-649.64673	748.65247	-45.09263	-655.03674	-729.47937	44.79961	481.82733	712.25397	45.37703	491.10083	-35.45521	1221.61804	-1082.03430	
